<svg width="500" height="306" viewBox="0 0 230 61" fill="none" xmlns="http://www.w3.org/2000/svg">
<mask id="mask0_1687_2419" style="mask-type:luminance" maskUnits="userSpaceOnUse" x="0" y="0" width="230" height="61">
<path d="M230 0H0V60.895H230V0Z" fill="white"/>
</mask>
<g mask="url(#mask0_1687_2419)">
<path d="M10.4707 24.6822C13.1325 24.6822 15.2902 22.5414 15.2902 19.9006C15.2902 17.2599 13.1325 15.1191 10.4707 15.1191C7.80899 15.1191 5.65125 17.2599 5.65125 19.9006C5.65125 22.5414 7.80899 24.6822 10.4707 24.6822Z" fill="#FB5600"/>
<path d="M33.171 28.2074L40.6732 24.8178C40.9139 24.4043 41.1193 23.985 41.3013 23.5831L30.5 27.8813L41.5714 22.925C41.7122 22.5581 41.8296 22.2087 41.9294 21.9L28.2458 27.3804L42.1349 21.2011C42.1936 20.9798 42.2405 20.8051 42.2699 20.6828C42.5399 19.681 41.7299 20.1237 41.7299 20.1237L24.9115 27.13C25.07 25.9477 26.0327 25.5226 26.0327 25.5226C26.0327 25.5226 35.478 20.5721 40.2388 18.0737C41.6476 17.334 42.7572 16.2566 43.6259 15.0801L34.0574 18.7842L44.2893 14.09C44.4713 13.7871 44.6415 13.4843 44.8 13.1873L30.9051 18.6619L45.2931 12.1623C45.4046 11.9118 45.5044 11.6614 45.5984 11.4226L28.2458 18.3357L45.9799 10.3976C46.0562 10.1646 46.1208 9.94916 46.1795 9.74529L25.9917 17.829L46.4437 8.73189C46.4789 8.58052 46.5024 8.46403 46.52 8.39415C46.6785 7.637 46.0915 7.77093 45.9154 7.83504C45.7392 7.89909 25.9271 16.0353 25.3694 16.3264C24.8059 16.6176 23.0448 17.4738 21.1194 18.7201C15.9242 22.0689 14.3451 27.5785 13.987 28.5802C13.6289 29.5819 12.8188 32.9948 13.67 35.6272C14.527 38.2597 16.5053 41.0668 16.5053 41.0668C17.0923 35.9825 33.5702 29.8905 37.2332 28.1725C38.5775 27.5435 39.5755 26.501 40.3151 25.3828L33.171 28.2074Z" fill="#333237"/>
<path d="M17.9024 43.1472C17.9024 43.1472 16.8692 42.1222 18.0139 40.4682C19.1586 38.82 22.669 36.0769 25.1169 35.5527C25.1169 35.5527 25.0524 46.0476 30.0186 52.2909C30.3356 52.6695 30.2534 53.4266 29.502 53.0947C28.5041 52.652 20.1918 46.2922 17.9024 43.1472Z" fill="#FB5600"/>
<path d="M53.8546 12.8733C53.8546 11.4105 53.6539 10.335 53.2523 9.64661C52.8508 8.92957 52.0477 8.57105 50.8431 8.57105H50.4128V7.28037H68.4391C70.8771 7.28037 72.096 8.42764 72.096 10.7222V14.3791H70.8054C70.8054 12.5721 70.3466 11.2671 69.429 10.464C68.5394 9.63227 67.2062 9.21638 65.4276 9.21638H59.4476V20.1871H68.9125V22.1231H59.4476V35.6752H53.8546V12.8733ZM77.0467 12.8733C77.0467 11.4105 76.8455 10.335 76.4439 9.64661C76.0428 8.92957 75.2395 8.57105 74.0351 8.57105H73.6049V7.28037H78.7676C79.8 7.28037 80.5887 7.45246 81.1338 7.79664C81.6783 8.14082 82.066 8.71445 82.295 9.51754C82.5247 10.2919 82.6396 11.4105 82.6396 12.8733V33.7392H97.4823V35.6752H77.0467V12.8733ZM100.868 12.8733C100.868 11.4105 100.668 10.335 100.266 9.64661C99.8644 8.92957 99.0616 8.57105 97.8567 8.57105H97.4264V7.28037H116.399C118.837 7.28037 120.056 8.42764 120.056 10.7222V14.3791H118.766C118.766 12.6008 118.307 11.2958 117.389 10.464C116.5 9.63227 115.167 9.21638 113.388 9.21638H106.461V19.972H117.647V21.908H106.461V33.7392H113.818C115.453 33.7392 116.816 33.3807 117.905 32.6636C118.995 31.9179 119.899 30.6416 120.616 28.8346L121.777 29.2648L120.53 32.6636C120.157 33.6962 119.712 34.4562 119.196 34.9438C118.68 35.4314 117.877 35.6752 116.787 35.6752H100.868V12.8733ZM133.893 22.2952L127.784 12.8733C127.038 11.6687 126.12 10.6074 125.03 9.68963C123.941 8.77182 122.937 8.25555 122.019 8.14082V7.28037H126.751C128.214 7.28037 129.533 7.73928 130.709 8.65709C131.914 9.5749 132.932 10.6935 133.764 12.0128L137.507 17.7779L145.81 7.28037H148.607L138.755 19.7139L145.509 30.0823C146.254 31.2869 147.173 32.3481 148.262 33.2659C149.352 34.1838 150.356 34.7 151.274 34.8147V35.6752H146.541C145.079 35.6752 143.745 35.2163 142.54 34.2985C141.365 33.3807 140.361 32.2621 139.529 30.9427L135.183 24.2312L126.106 35.6752H123.309L133.893 22.2952ZM157.704 35.6752C156.672 35.6752 155.883 35.5174 155.338 35.2019C154.793 34.8578 154.406 34.2985 154.177 33.5241C153.947 32.721 153.832 31.5737 153.832 30.0823V7.28037H159.425V30.0823C159.425 31.545 159.626 32.6349 160.027 33.352C160.429 34.0403 161.232 34.3845 162.437 34.3845H162.867V35.6752H157.704ZM179.037 36.5356C176.255 36.5356 173.774 35.876 171.594 34.5566C169.443 33.2373 167.779 31.4303 166.603 29.1358C165.427 26.8413 164.839 24.2886 164.839 21.4778C164.839 18.667 165.427 16.1143 166.603 13.8198C167.779 11.5253 169.443 9.71831 171.594 8.39896C173.774 7.0796 176.255 6.41992 179.037 6.41992C181.819 6.41992 184.286 7.0796 186.437 8.39896C188.588 9.71831 190.252 11.5253 191.427 13.8198C192.603 16.1143 193.192 18.667 193.192 21.4778C193.192 24.2886 192.603 26.8413 191.427 29.1358C190.252 31.4303 188.588 33.2373 186.437 34.5566C184.286 35.876 181.819 36.5356 179.037 36.5356ZM179.037 34.5996C181.647 34.5996 183.669 33.4667 185.103 31.2009C186.537 28.9063 187.254 25.6653 187.254 21.4778C187.254 17.2903 186.537 14.0636 185.103 11.7977C183.669 9.5032 181.647 8.35593 179.037 8.35593C176.427 8.35593 174.405 9.5032 172.971 11.7977C171.565 14.0636 170.862 17.2903 170.862 21.4778C170.862 25.6653 171.565 28.9063 172.971 31.2009C174.405 33.4667 176.427 34.5996 179.037 34.5996ZM200.916 14.3791V35.6752H198.764V12.4431C198.764 11.2384 198.463 10.2919 197.861 9.60358C197.287 8.91522 196.298 8.57105 194.892 8.57105H194.677V7.28037H197.689C199.295 7.28037 200.6 7.49548 201.604 7.92571C202.636 8.32725 203.497 8.97259 204.185 9.86172L218.985 27.0707V7.28037H221.136V35.8043H219.157L200.916 14.3791Z" fill="#333237"/>
<path d="M55.4487 52.1194H53.8388V40.5122H55.4487V52.1194ZM59.0897 42.1459L57.7807 40.5122H59.9021L67.1089 49.381V40.5122H68.7642V52.1194H67.1387L60.6996 44.1375V52.1194H59.0897V42.1459ZM73.7136 47.4672V52.1194H72.0741V40.5122H79.9725V42.2238H73.7136V45.7401C74.0247 45.5534 74.3711 45.4289 74.7521 45.3667C75.0328 45.3149 75.3938 45.2889 75.8356 45.2889H78.2875V47.016H75.8356C75.4242 47.016 75.0632 47.0419 74.7521 47.0938C74.3711 47.1664 74.0247 47.2909 73.7136 47.4672ZM92.2351 46.238C92.2351 45.4082 92.0291 44.6562 91.6177 43.9819C91.227 43.3284 90.6929 42.815 90.0153 42.4415C89.3384 42.0681 88.6037 41.8815 87.8114 41.8815C86.9892 41.8815 86.2393 42.0734 85.5624 42.4571C84.8849 42.8409 84.3562 43.3648 83.9752 44.0286C83.5838 44.7236 83.3882 45.4964 83.3882 46.3469C83.3882 47.156 83.599 47.9028 84.0202 48.5875C84.4212 49.2306 84.9602 49.7414 85.6371 50.1201C86.3147 50.4987 87.0469 50.6879 87.8338 50.6879C88.6214 50.6879 89.3536 50.4909 90.0305 50.0967C90.7075 49.7026 91.2416 49.1735 91.6329 48.5097C92.034 47.8147 92.2351 47.0575 92.2351 46.238ZM93.86 46.3314C93.86 47.4517 93.5787 48.4838 93.0172 49.4276C92.4758 50.3301 91.7411 51.0484 90.8132 51.5826C89.8853 52.1168 88.8845 52.3839 87.8114 52.3839C86.6981 52.3839 85.6748 52.1039 84.7421 51.5437C83.8294 51.0043 83.1123 50.2627 82.5909 49.3188C82.0489 48.3541 81.7785 47.296 81.7785 46.1447C81.7785 45.0348 82.0641 44.0131 82.6359 43.0795C83.1773 42.1874 83.912 41.4795 84.8399 40.9557C85.7678 40.4318 86.7631 40.1699 87.8265 40.1699C88.9197 40.1699 89.9327 40.4448 90.8655 40.9946C91.7782 41.5339 92.5007 42.2653 93.0324 43.1884C93.5841 44.1531 93.86 45.2008 93.86 46.3314ZM104.768 42.2238H100.811V52.1194H99.216V42.2238H95.2139V40.5122H104.768V42.2238ZM108.514 47.4672V50.4235H115.435V52.1194H106.874V40.5122H114.773V42.2238H108.514V45.7401C108.825 45.5534 109.171 45.4289 109.552 45.3667C109.833 45.3149 110.194 45.2889 110.636 45.2889H113.088V47.016H110.636C110.224 47.016 109.863 47.0419 109.552 47.0938C109.171 47.1664 108.825 47.2909 108.514 47.4672ZM127.682 42.0059L126.629 43.2818C126.217 42.8461 125.726 42.5038 125.155 42.2549C124.583 42.0059 123.981 41.8815 123.349 41.8815C122.526 41.8815 121.777 42.0734 121.1 42.4571C120.423 42.8409 119.893 43.3648 119.512 44.0286C119.121 44.7236 118.925 45.4964 118.925 46.3469C118.925 47.156 119.136 47.9028 119.557 48.5875C119.958 49.2306 120.497 49.7414 121.175 50.1201C121.852 50.4987 122.582 50.6879 123.364 50.6879C124.086 50.6879 124.758 50.5272 125.38 50.2056C126.002 49.8841 126.518 49.438 126.93 48.8675L127.938 50.2834C127.366 50.9473 126.682 51.4633 125.884 51.8316C125.087 52.1998 124.241 52.3839 123.349 52.3839C122.235 52.3839 121.213 52.1039 120.279 51.5437C119.367 51.0043 118.65 50.2627 118.128 49.3188C117.587 48.3541 117.316 47.296 117.316 46.1447C117.316 45.0348 117.601 44.0131 118.173 43.0795C118.715 42.1874 119.45 41.4795 120.377 40.9557C121.305 40.4318 122.301 40.1699 123.364 40.1699C124.196 40.1699 124.989 40.3359 125.741 40.6678C126.473 40.979 127.12 41.425 127.682 42.0059ZM131.97 46.9849V52.1194H130.345V40.5122H131.97V45.2734C132.371 45.0659 132.848 44.9622 133.399 44.9622C133.6 44.9622 134.087 45.0089 134.859 45.1022C135.942 45.237 136.674 45.3045 137.055 45.3045C137.637 45.3045 138.143 45.2059 138.575 45.0089V40.5122H140.215V52.1194H138.575V46.7203C138.143 46.9175 137.637 47.016 137.055 47.016C136.674 47.016 135.942 46.9486 134.859 46.8137C134.087 46.7203 133.6 46.6737 133.399 46.6737C132.848 46.6737 132.371 46.7774 131.97 46.9849ZM151.379 45.4756H153.365C154.468 45.4756 155.019 44.9258 155.019 43.8263C155.019 43.2558 154.881 42.8435 154.606 42.5894C154.33 42.3353 153.916 42.2082 153.365 42.2082H149.242V45.9424C149.553 45.7557 149.904 45.6261 150.295 45.5534C150.586 45.5015 150.947 45.4756 151.379 45.4756ZM149.242 52.1194H147.602V40.5122H153.365C154.026 40.5122 154.603 40.6445 155.095 40.909C155.586 41.1735 155.967 41.5547 156.238 42.0526C156.509 42.5505 156.644 43.1391 156.644 43.8186C156.644 44.498 156.509 45.0918 156.238 45.6001C155.967 46.1084 155.584 46.4999 155.087 46.7748C154.591 47.0497 154.017 47.1871 153.365 47.1871H151.379C150.516 47.1871 149.804 47.3427 149.242 47.6539V52.1194ZM169.132 40.5122L164.423 52.1194H162.482L157.848 40.5122H159.624L163.46 50.2212L167.327 40.5122H169.132ZM179.589 42.2238H175.632V52.1194H174.037V42.2238H170.035V40.5122H179.589V42.2238ZM180.793 51.1547C180.793 50.8954 180.878 50.675 181.049 50.4935C181.219 50.312 181.43 50.2212 181.68 50.2212C181.931 50.2212 182.144 50.312 182.32 50.4935C182.495 50.675 182.583 50.8954 182.583 51.1547C182.583 51.414 182.495 51.6319 182.32 51.8082C182.144 51.9846 181.931 52.0727 181.68 52.0727C181.43 52.0727 181.219 51.9846 181.049 51.8082C180.878 51.6319 180.793 51.414 180.793 51.1547ZM196.936 52.1194H189.067V40.5122H190.707V50.4235H196.936V52.1194ZM207.242 42.2238H203.285V52.1194H201.691V42.2238H197.689V40.5122H207.242V42.2238ZM211.591 42.2238V50.4235H214.133C214.835 50.4235 215.467 50.2368 216.029 49.8633C216.561 49.5003 216.977 49.0127 217.278 48.4008C217.579 47.7888 217.729 47.1197 217.729 46.3936C217.729 45.6364 217.586 44.9414 217.3 44.3087C217.014 43.6759 216.606 43.1729 216.074 42.7995C215.502 42.4157 214.845 42.2238 214.103 42.2238H211.591ZM209.093 42.2238L208.371 40.5122H214.088C215.081 40.5122 215.989 40.7767 216.811 41.3058C217.604 41.814 218.231 42.509 218.692 43.3907C219.153 44.2724 219.384 45.2319 219.384 46.2691C219.384 47.0471 219.236 47.8173 218.941 48.5797C218.645 49.3421 218.236 50.0086 217.714 50.579C217.212 51.1392 216.676 51.5385 216.104 51.7771C215.553 52.0053 214.895 52.1194 214.133 52.1194H209.981V42.2238H209.093ZM221.039 51.1547C221.039 50.8954 221.124 50.675 221.295 50.4935C221.465 50.312 221.676 50.2212 221.927 50.2212C222.178 50.2212 222.391 50.312 222.566 50.4935C222.742 50.675 222.83 50.8954 222.83 51.1547C222.83 51.414 222.742 51.6319 222.566 51.8082C222.391 51.9846 222.178 52.0727 221.927 52.0727C221.676 52.0727 221.465 51.9846 221.295 51.8082C221.124 51.6319 221.039 51.414 221.039 51.1547Z" fill="#FB5600"/>
</g>
</svg>
